<svg xmlns="http://www.w3.org/2000/svg" width="58" height="64" viewBox="0 0 58 64"><defs><style>.a{fill:#fff;}</style></defs><g transform="translate(16.336)"><g transform="translate(0)"><path class="a" d="M179.276,7.094V0h-3.8V8.161a14.192,14.192,0,0,0-6.115,5.127l-.851,1.276-.851-1.276a14.192,14.192,0,0,0-6.115-5.127V0h-3.8V7.094a14.2,14.2,0,0,0-1.9-.129v8.358a7.6,7.6,0,0,0,7.6,7.6h10.131a7.6,7.6,0,0,0,7.6-7.6V6.965A14.206,14.206,0,0,0,179.276,7.094Z" transform="translate(-155.847)"/></g></g><g transform="translate(0 25.979)"><g transform="translate(0)"><path class="a" d="M54.129,211.323H37.141L16.635,244.757v.127a96.508,96.508,0,0,0,58,0v-.127Z" transform="translate(-16.635 -211.323)"/></g></g></svg>