<svg xmlns="http://www.w3.org/2000/svg" width="63.422" height="59.382" viewBox="0 0 63.422 59.382"><defs><style>.a{fill:#fff;}</style></defs><g transform="translate(0)"><g transform="translate(3.964 31.634)"><path class="a" d="M32,271.692v23.783a3.968,3.968,0,0,0,3.964,3.964H55.783V271.692Z" transform="translate(-32 -271.692)"/></g><g transform="translate(0 0)"><path class="a" d="M59.458,32.087H46.916a15.4,15.4,0,0,0,2.212-1.772,8.285,8.285,0,0,0,0-11.662,8.376,8.376,0,0,0-11.626,0c-1.72,1.724-6.279,8.744-5.648,13.433h-.285c.626-4.689-3.932-11.709-5.648-13.433a8.383,8.383,0,0,0-11.626,0,8.3,8.3,0,0,0,0,11.662,15.686,15.686,0,0,0,2.216,1.772H3.964A3.97,3.97,0,0,0,0,36.051V42a1.983,1.983,0,0,0,1.982,1.982H27.747V36.051h7.928v7.928H61.44A1.983,1.983,0,0,0,63.422,42V36.051A3.968,3.968,0,0,0,59.458,32.087Zm-31.945-.131a1.307,1.307,0,0,1-.733.131c-2.739,0-7.967-2.846-9.676-4.566a4.323,4.323,0,0,1,0-6.073,4.225,4.225,0,0,1,6.005,0C25.781,24.136,28.437,31,27.513,31.956Zm9.125.131c-.563,0-.729-.127-.729-.131-.924-.955,1.732-7.821,4.4-10.508a4.27,4.27,0,1,1,6.005,6.073C44.609,29.241,39.381,32.087,36.638,32.087Z" transform="translate(0 -16.308)"/></g><g transform="translate(35.675 31.634)"><path class="a" d="M288,271.692v27.747h19.819a3.965,3.965,0,0,0,3.964-3.964V271.692Z" transform="translate(-288 -271.692)"/></g></g></svg>