<svg xmlns="http://www.w3.org/2000/svg" width="68" height="54" viewBox="0 0 68 54"><defs><style>.a{fill:#fff;}</style></defs><g transform="translate(0 -50.075)"><path class="a" d="M240.355,234.709a2.784,2.784,0,1,0-2.784,2.784A2.787,2.787,0,0,0,240.355,234.709Z" transform="translate(-203.603 -158.042)"/><path class="a" d="M213.338,324.847c3.521,0,6.5-4.807,6.5-10.5s-2.975-10.5-6.5-10.5-6.5,4.807-6.5,10.5,2.975,10.5,6.5,10.5Z" transform="translate(-179.371 -220.772)"/><path class="a" d="M33.967,70.92c-9.252,0-17.824-3.45-25.478-10.254A49.607,49.607,0,0,1,0,50.856v6.719a54.861,54.861,0,0,0,5.737,5.976c.354.316.711.625,1.071.929A15.169,15.169,0,0,0,5.079,71.6,14.515,14.515,0,0,0,7.7,80.154a8.692,8.692,0,0,0,7.012,3.868,7.657,7.657,0,0,0,1.656-.181c1.724,3.392,4.664,5.516,7.893,5.588A15.82,15.82,0,0,1,26.317,85a11.616,11.616,0,0,1,2.618-2.793,6.765,6.765,0,0,1,5.032-11.29Z" transform="translate(0 -0.677)"/><path class="a" d="M289.783,56.817V50.075a49.448,49.448,0,0,1-8.555,9.914c-7.654,6.8-16.226,10.254-25.478,10.254a6.765,6.765,0,0,1,5.032,11.29,11.621,11.621,0,0,1,2.618,2.793,15.821,15.821,0,0,1,2.052,4.426c3.229-.073,6.17-2.2,7.893-5.588a7.657,7.657,0,0,0,1.656.181,8.692,8.692,0,0,0,7.012-3.868,14.515,14.515,0,0,0,2.624-8.55,15.166,15.166,0,0,0-1.729-7.124c.359-.3.717-.612,1.071-.928a54.848,54.848,0,0,0,5.8-6.057Z" transform="translate(-221.783)"/></g></svg>