<svg id="undraw_on_the_way_ldaq" xmlns="http://www.w3.org/2000/svg" width="1056.28" height="808.894" viewBox="0 0 1056.28 808.894">
  <path id="Path_1" data-name="Path 1" d="M155.53,264.1a257.249,257.249,0,0,1,41.89-66.76l581.3-5.73-478.6-67.22a271.88,271.88,0,0,1,97.11-19.26,272.17,272.17,0,0,1,325.12-11,271,271,0,0,1,124.43-30c129.16,0,236.78,89.46,260.92,208.08Z" transform="translate(-135.09 -45.556)" fill="#022b69" opacity="0.1"/>
  <path id="Path_2" data-name="Path 2" d="M71.86,363.59a251.308,251.308,0,0,1,18.11-93.9L1097.43,375.44A253,253,0,0,1,1121,435.05l-312,46.5,319.14,33.91c-9.6,134.29-124.72,240.33-265.35,240.33-70.79,0-135.12-26.87-182.78-70.69-47.81,44.65-112.76,72.11-184.31,72.11-106.17,0-197.8-60.45-240.47-147.85-85.61-27.17-152.11-95.39-174.87-180.74L474.9,367.43H71.9C71.88,366.15,71.86,364.87,71.86,363.59Z" transform="translate(-71.86 -45.556)" fill="#022b69" opacity="0.1"/>
  <ellipse id="Ellipse_1" data-name="Ellipse 1" cx="25.82" cy="3.55" rx="25.82" ry="3.55" transform="translate(1002.35 735.244)" fill="#022b69" opacity="0.1"/>
  <ellipse id="Ellipse_2" data-name="Ellipse 2" cx="25.82" cy="3.55" rx="25.82" ry="3.55" transform="translate(903.44 745.274)" fill="#022b69" opacity="0.1"/>
  <ellipse id="Ellipse_3" data-name="Ellipse 3" cx="25.82" cy="3.55" rx="25.82" ry="3.55" transform="translate(786.93 731.694)" fill="#022b69" opacity="0.1"/>
  <ellipse id="Ellipse_4" data-name="Ellipse 4" cx="18.36" cy="2.52" rx="18.36" ry="2.52" transform="translate(950.49 774.864)" fill="#022b69" opacity="0.1"/>
  <ellipse id="Ellipse_5" data-name="Ellipse 5" cx="18.36" cy="2.52" rx="18.36" ry="2.52" transform="translate(847.82 772.344)" fill="#022b69" opacity="0.1"/>
  <path id="Path_3" data-name="Path 3" d="M294.839,793.58s36.22-118.72-5.66-166.27c-31.34-35.58-66.9-31.32-82.83-26.92a29.44,29.44,0,0,0-19,15.79c-5.57,12-4.56,31.51,34.75,54.27,65.82,38.11,69.91,90.38,69.91,90.38Z" transform="translate(633.861 -45.556)" fill="#022b69"/>
  <path id="Path_4" data-name="Path 4" d="M195.941,617.23s106.76,33.38,82.82,176.35" transform="translate(649.939 -45.556)" fill="none" stroke="#565987" stroke-miterlimit="10" stroke-width="1"/>
  <path id="Path_5" data-name="Path 5" d="M230.837,629.2s-14.7,9.9-10,24.79" transform="translate(677.393 -45.556)" fill="none" stroke="#565987" stroke-miterlimit="10" stroke-width="1"/>
  <path id="Path_6" data-name="Path 6" d="M251.63,638s9-9.14,19.92-4.1" transform="translate(604.96 -45.556)" fill="none" stroke="#565987" stroke-miterlimit="10" stroke-width="1"/>
  <path id="Path_7" data-name="Path 7" d="M209.49,684s15.78-8,19.86,2" transform="translate(689.3 -45.556)" fill="none" stroke="#565987" stroke-miterlimit="10" stroke-width="1"/>
  <path id="Path_8" data-name="Path 8" d="M202.37,700.68s-11.85-.94-12.07,4.73" transform="translate(735.47 -45.556)" fill="none" stroke="#565987" stroke-miterlimit="10" stroke-width="1"/>
  <path id="Path_9" data-name="Path 9" d="M262,794.53s-42.42-86.29-54.07-84.4c-5.53.9-8.08,6.34-9.24,11.81A34.8,34.8,0,0,0,201,743C207,756.75,223.224,783,262,794.53Z" transform="translate(668.136 -45.556)" fill="#022b69"/>
  <path id="Path_10" data-name="Path 10" d="M198.6,726.51s44.52,64.56,53.12,67.39" transform="translate(677.82 -45.556)" fill="none" stroke="#565987" stroke-miterlimit="10" stroke-width="1"/>
  <line id="Line_1" data-name="Line 1" x2="10.39" transform="translate(872.32 691.024)" fill="none" stroke="#565987" stroke-miterlimit="10" stroke-width="1"/>
  <line id="Line_2" data-name="Line 2" x2="16.28" y2="0.7" transform="translate(884.77 714.644)" fill="none" stroke="#565987" stroke-miterlimit="10" stroke-width="1"/>
  <line id="Line_3" data-name="Line 3" x1="1.77" y2="8.48" transform="translate(892.91 695.754)" fill="none" stroke="#565987" stroke-miterlimit="10" stroke-width="1"/>
  <line id="Line_4" data-name="Line 4" x1="0.32" y2="7.71" transform="translate(911.68 721.574)" fill="none" stroke="#565987" stroke-miterlimit="10" stroke-width="1"/>
  <path id="Path_11" data-name="Path 11" d="M135.234,794.53s42.42-86.29,54.07-84.4c5.53.9,8.08,6.34,9.24,11.81a34.73,34.73,0,0,1-2.32,21C190.214,756.75,174.044,783,135.234,794.53Z" transform="translate(793.676 -45.556)" fill="#022b69"/>
  <path id="Path_12" data-name="Path 12" d="M198.6,726.51s-44.52,64.56-53.12,67.39" transform="translate(784.06 -45.556)" fill="none" stroke="#565987" stroke-miterlimit="10" stroke-width="1"/>
  <line id="Line_5" data-name="Line 5" x1="10.39" transform="translate(976.36 691.024)" fill="none" stroke="#565987" stroke-miterlimit="10" stroke-width="1"/>
  <line id="Line_6" data-name="Line 6" x1="16.29" y2="0.7" transform="translate(958.02 714.644)" fill="none" stroke="#565987" stroke-miterlimit="10" stroke-width="1"/>
  <line id="Line_7" data-name="Line 7" x2="1.77" y2="8.48" transform="translate(964.39 695.754)" fill="none" stroke="#565987" stroke-miterlimit="10" stroke-width="1"/>
  <line id="Line_8" data-name="Line 8" x2="0.32" y2="7.71" transform="translate(947.07 721.574)" fill="none" stroke="#565987" stroke-miterlimit="10" stroke-width="1"/>
  <path id="Path_13" data-name="Path 13" d="M251.107,814.68a7.36,7.36,0,0,1-2.42-3.64,3.24,3.24,0,0,1,1.69-3.71c1.55-.6,3.21.48,4.46,1.56s2.7,2.33,4.34,2.1a6.61,6.61,0,0,1-2-6.18,2.58,2.58,0,0,1,.56-1.26c.86-.92,2.42-.52,3.45.2,3.28,2.3,4.19,6.75,4.21,10.76a20.479,20.479,0,0,0,.06-4.43,4.524,4.524,0,0,1,1.67-3.92,4.881,4.881,0,0,1,2.53-.6c1.48,0,3.11.09,4.12,1.17,1.25,1.34.93,3.58-.16,5.06a16.121,16.121,0,0,1-4.26,3.41,9.509,9.509,0,0,0-3,2.9,3.006,3.006,0,0,0-.22.52h-9.23a25.589,25.589,0,0,1-5.8-3.94Z" transform="translate(604.973 -45.556)" fill="#022b69"/>
  <path id="Path_14" data-name="Path 14" d="M89.469,779.93a7.34,7.34,0,0,1-2.42-3.64,3.26,3.26,0,0,1,1.69-3.72c1.55-.59,3.2.49,4.46,1.57s2.69,2.32,4.34,2.09a6.58,6.58,0,0,1-2-6.18,2.61,2.61,0,0,1,.57-1.25c.86-.92,2.42-.53,3.45.2,3.28,2.3,4.19,6.75,4.21,10.76a20.569,20.569,0,0,0,.06-4.44,4.5,4.5,0,0,1,1.66-3.91,4.92,4.92,0,0,1,2.54-.6c1.47-.06,3.11.09,4.12,1.17,1.25,1.34.92,3.58-.16,5a15.85,15.85,0,0,1-4.27,3.42,9.369,9.369,0,0,0-3,2.9,3.552,3.552,0,0,0-.23.52h-9.23a25.763,25.763,0,0,1-5.79-3.89Z" transform="translate(928.241 -45.556)" fill="#022b69"/>
  <path id="Path_15" data-name="Path 15" d="M143.347,814.68a7.36,7.36,0,0,1-2.42-3.64,3.24,3.24,0,0,1,1.69-3.71c1.55-.6,3.21.48,4.46,1.56s2.7,2.33,4.34,2.1a6.61,6.61,0,0,1-2-6.18,2.58,2.58,0,0,1,.56-1.26c.86-.92,2.42-.52,3.45.2,3.28,2.3,4.19,6.75,4.21,10.76a20.479,20.479,0,0,0,.06-4.43c0-1.48.41-3.13,1.66-3.92a4.94,4.94,0,0,1,2.54-.6c1.47,0,3.11.09,4.12,1.17,1.25,1.34.93,3.58-.16,5.06a16.121,16.121,0,0,1-4.26,3.41,9.51,9.51,0,0,0-3,2.9,3.005,3.005,0,0,0-.22.52h-9.23a25.588,25.588,0,0,1-5.8-3.94Z" transform="translate(820.493 -45.556)" fill="#022b69"/>
  <path id="Path_16" data-name="Path 16" d="M315.314,744.43s-3.46,4.53,1.6,11.36,9.22,12.6,7.54,16.86c0,0-7.63-12.69-13.84-12.87S308.484,752.06,315.314,744.43Z" transform="translate(495.756 -45.556)" fill="#022b69"/>
  <path id="Path_17" data-name="Path 17" d="M315.513,744.43a5.739,5.739,0,0,0-.71,1.42c-6.06,7.12-9.28,13.76-3.46,13.93,5.43.16,11.93,9.86,13.49,12.31-.05.19-.11.37-.18.56,0,0-7.63-12.69-13.84-12.87S308.683,752.06,315.513,744.43Z" transform="translate(495.557 -45.556)" opacity="0.1"/>
  <path id="Path_18" data-name="Path 18" d="M322.7,750.2c0,1.59.18,2.88.4,2.88s.4-1.29.4-2.88-.23-.84-.45-.84S322.7,748.61,322.7,750.2Z" transform="translate(481.94 -45.556)" fill="#ffd037"/>
  <path id="Path_19" data-name="Path 19" d="M323.836,752.1c1.4.76,2.62,1.22,2.72,1s-.94-1-2.34-1.73-.84-.21-.95,0S322.436,751.34,323.836,752.1Z" transform="translate(478.594 -45.556)" fill="#ffd037"/>
  <path id="Path_20" data-name="Path 20" d="M300.559,744.43s3.46,4.53-1.6,11.36-9.23,12.6-7.54,16.86c0,0,7.63-12.69,13.84-12.87S307.349,752.06,300.559,744.43Z" transform="translate(528.791 -45.556)" fill="#022b69"/>
  <path id="Path_21" data-name="Path 21" d="M300.367,744.43a5.552,5.552,0,0,1,.7,1.42c6.06,7.12,9.29,13.76,3.47,13.93-5.43.16-11.94,9.86-13.5,12.31.06.19.12.37.19.56,0,0,7.63-12.69,13.84-12.87S307.157,752.06,300.367,744.43Z" transform="translate(528.983 -45.556)" opacity="0.1"/>
  <path id="Path_22" data-name="Path 22" d="M293.16,750.2c0,1.59-.18,2.88-.4,2.88s-.4-1.29-.4-2.88.22-.84.44-.84S293.16,748.61,293.16,750.2Z" transform="translate(542.62 -45.556)" fill="#ffd037"/>
  <path id="Path_23" data-name="Path 23" d="M292.005,752.1c-1.4.76-2.62,1.22-2.73,1s.95-1,2.34-1.73.85-.21,1,0S293.4,751.34,292.005,752.1Z" transform="translate(545.985 -45.556)" fill="#ffd037"/>
  <path id="Path_24" data-name="Path 24" d="M329.458,772.05s-9.68-.29-12.59-2.37-14.88-4.56-15.61-1.23-14.53,16.56-3.61,16.65,25.37-1.7,28.28-3.47S329.458,772.05,329.458,772.05Z" transform="translate(505.222 -45.556)" fill="#a8a8a8"/>
  <path id="Path_25" data-name="Path 25" d="M297.442,783.94c10.92.09,25.38-1.7,28.29-3.47,2.22-1.35,3.1-6.19,3.39-8.43h.33s-.62,7.81-3.53,9.58-17.36,3.56-28.28,3.47c-3.16,0-4.24-1.15-4.18-2.81C293.912,783.3,295.1,783.92,297.442,783.94Z" transform="translate(505.228 -45.556)" opacity="0.2"/>
  <ellipse id="Ellipse_6" data-name="Ellipse 6" cx="329.42" cy="14.94" rx="329.42" ry="14.94" transform="translate(114.47 779.014)" fill="#022b69" opacity="0.1"/>
  <path id="Path_26" data-name="Path 26" d="M768.067,392.84s-21,39.73-22.63,45.4a7.66,7.66,0,0,1-7.08,5.66s-20.92,5-25.92,5.67-48.34,4.33-48.34,4.33-11,.34-12.33-3.66c-1.22-3.66-22.47-22.89-34.77-6.11a12.23,12.23,0,0,0-1.78,10.92c2.26,7.2,6.9,18.63,11.88,11.52,7-10,15.14-7.19,15.14-1.86s11.2,3.35,14.86,4.1c2,.41,8.88,2.24,14.83,3.84a108,108,0,0,0,21.12,3.51c11.81.77,29.22,1.41,35.39-.92,7.45-2.83,20.44-3.48,26-3.63a8.55,8.55,0,0,0,5.07-1.82,79.089,79.089,0,0,0,19.25-21.89c8.67-15,26.5-46.06,25.3-55.06S768.067,392.84,768.067,392.84Z" transform="translate(-290.617 -45.556)" fill="#efb7b9"/>
  <path id="Path_27" data-name="Path 27" d="M768.067,392.84s-21,39.73-22.63,45.4a7.66,7.66,0,0,1-7.08,5.66s-20.92,5-25.92,5.67-48.34,4.33-48.34,4.33-11,.34-12.33-3.66c-1.22-3.66-22.47-22.89-34.77-6.11a12.23,12.23,0,0,0-1.78,10.92c2.26,7.2,6.9,18.63,11.88,11.52,7-10,15.14-7.19,15.14-1.86s11.2,3.35,14.86,4.1c2,.41,8.88,2.24,14.83,3.84a108,108,0,0,0,21.12,3.51c11.81.77,29.22,1.41,35.39-.92,7.45-2.83,20.44-3.48,26-3.63a8.55,8.55,0,0,0,5.07-1.82,79.089,79.089,0,0,0,19.25-21.89c8.67-15,26.5-46.06,25.3-55.06S768.067,392.84,768.067,392.84Z" transform="translate(-290.617 -45.556)" opacity="0.05"/>
  <path id="Path_28" data-name="Path 28" d="M818.42,693c9.51,10.34,16.51,14.41,16.18,3.5-1-33,57-182.2,57-182.2L874.45,513C837.02,577.49,823.1,643.81,818.42,693Z" transform="translate(-581.88 -45.556)" fill="none"/>
  <path id="Path_29" data-name="Path 29" d="M808.41,765a82.5,82.5,0,0,0,164.69,7c.12-1.34.21-2.68.25-4v-.07q.06-1.49.06-3a82.5,82.5,0,1,0-165,0Z" transform="translate(-653.68 -45.556)" fill="#65617d"/>
  <circle id="Ellipse_7" data-name="Ellipse 7" cx="45" cy="45" r="45" transform="translate(192.23 674.394)" fill="#dce0ed"/>
  <circle id="Ellipse_8" data-name="Ellipse 8" cx="27" cy="27" r="27" transform="translate(210.23 692.394)" fill="#65617d"/>
  <path id="Path_30" data-name="Path 30" d="M475.59,608.28l198.66,4V583c-1.78-23.57-26-31.84-48-34.43a137.781,137.781,0,0,0-51.33,3.85c-42.15,11.16-69,13.32-82.23,13.53a12.61,12.61,0,0,0-12.2,10.26c-.63,3.35-1.25,7-1.83,10.6-.44,2.82-.86,5.6-1.24,8.19C476.32,602.46,475.59,608.28,475.59,608.28Z" transform="translate(-21.7 -45.556)" fill="#65617d"/>
  <path id="Path_31" data-name="Path 31" d="M464.025,770.28h412.69a16.25,16.25,0,0,0,15.05-9.73c3.11-7.43-1.24-12.17-5.88-14.95a46.75,46.75,0,0,1-20.32-24.86c-4.4-13-8.7-33.34-10.39-65.12-1.74-32.87-13.64-49.12-26.5-57h0c-16.61-10.16-34.82-6.35-34.82-6.35l-167.33,1.34a32.159,32.159,0,0,0-8.17,5.33c-14.91,13.88,6.83,32,6.83,32,46.67,49.33,11.34,99.33,11.34,99.33h-85.62a78.791,78.791,0,0,1-44.85-13.73c-11.57-8-16-15.73-17.78-20.41-1.32-3.58-2.66-7.15-4.26-10.61-22.46-48.71,4.63-127.95,16.32-157.58,2.9-7.37,4.85-11.67,4.85-11.67l-26.85-2-17-1.29h-.17c-37.42,64.54-51.33,130.86-56,180-.44,4.63-.8,9.12-1.09,13.43a60,60,0,0,0,59.95,63.87Z" transform="translate(-168.625 -45.556)" fill="#022b69"/>
  <path id="Path_32" data-name="Path 32" d="M475.59,595H672.43v-8.19H476.83C476.39,589.58,475.97,592.36,475.59,595Z" transform="translate(-19.88 -45.556)" opacity="0.1"/>
  <path id="Path_33" data-name="Path 33" d="M468.1,599H676.84a4,4,0,0,0,1.58-.32c-16.61-10.16-34.82-6.35-34.82-6.35l-167.33,1.34A32.157,32.157,0,0,0,468.1,599Z" transform="translate(-18.38 -45.556)" opacity="0.1"/>
  <rect id="Rectangle_1" data-name="Rectangle 1" width="291.7" height="8.19" rx="4.09" transform="translate(443.89 543.204)" fill="#dce0ed"/>
  <path id="Path_34" data-name="Path 34" d="M818.42,693c9.51,10.34,16.51,14.41,16.18,3.5-1-33,57-182.2,57-182.2L874.45,513C837.02,577.49,823.1,643.81,818.42,693Z" transform="translate(-581.88 -45.556)" opacity="0.1"/>
  <path id="Path_35" data-name="Path 35" d="M808.49,755.91c9.85,2.36,22,4.76,37,7q8.37,1.23,18,2.36c15.33,1.82,33.06,3.41,53.54,4.63q8.7.52,18.07.95,17.55.8,37.57,1.22l.25-4V768c-18.65-7.53-48-27.62-52.72-79.95a82.54,82.54,0,0,0-111.72,67.94Z" transform="translate(-653.26 -45.556)" opacity="0.1"/>
  <path id="Path_36" data-name="Path 36" d="M1011.9,770.28S917.2,760,949.82,615.71c0,0-46.79,42.9-75.9,66.74s-81,56.71-81,56.71S823.9,768.11,1011.9,770.28Z" transform="translate(-676.68 -45.556)" fill="#022b69"/>
  <path id="Path_37" data-name="Path 37" d="M1011.9,770.28S917.2,760,949.82,615.71c0,0-46.79,42.9-75.9,66.74s-81,56.71-81,56.71S823.9,768.11,1011.9,770.28Z" transform="translate(-676.68 -45.556)" fill="#fff" opacity="0.1"/>
  <circle id="Ellipse_9" data-name="Ellipse 9" cx="82.5" cy="82.5" r="82.5" transform="translate(505.72 636.894)" fill="#65617d"/>
  <circle id="Ellipse_10" data-name="Ellipse 10" cx="45" cy="45" r="45" transform="translate(543.22 674.394)" fill="#dce0ed"/>
  <circle id="Ellipse_11" data-name="Ellipse 11" cx="27" cy="27" r="27" transform="translate(561.22 692.394)" fill="#65617d"/>
  <path id="Path_38" data-name="Path 38" d="M443.42,740.17c0-53.27,42.31-96.46,94.5-96.46s94.5,43.19,94.5,96.46q0,3.38-.23,6.69H443.65Q443.42,743.55,443.42,740.17Z" transform="translate(52.3 -45.556)" opacity="0.1"/>
  <path id="Path_39" data-name="Path 39" d="M446.92,738.51c0-51.3,40.74-92.89,91-92.89s91,41.59,91,92.89c0,2.17-.08,4.31-.22,6.44H447.14C447,742.82,446.92,740.68,446.92,738.51Z" transform="translate(52.3 -45.556)" fill="#022b69"/>
  <path id="Path_40" data-name="Path 40" d="M446.92,738.51c0,1.49,0,3,.11,4.44,0,.67.07,1.33.11,2H628.7c0-.67.08-1.33.11-2,.07-1.47.11-3,.11-4.44,0-51.3-40.74-92.89-91-92.89S446.92,687.21,446.92,738.51Z" transform="translate(52.3 -45.556)" fill="#fff" opacity="0.1"/>
  <path id="Path_41" data-name="Path 41" d="M447.03,743c0,.67.07,1.33.11,2H628.7c0-.67.08-1.33.11-2Z" transform="translate(52.3 -45.556)" opacity="0.1"/>
  <rect id="Rectangle_2" data-name="Rectangle 2" width="244.48" height="21.33" rx="10.665" transform="translate(476.55 701.394)" opacity="0.1"/>
  <rect id="Rectangle_3" data-name="Rectangle 3" width="244.48" height="21.33" rx="10.665" transform="translate(476.55 699.394)" fill="#dce0ed"/>
  <ellipse id="Ellipse_12" data-name="Ellipse 12" cx="11.98" cy="30.16" rx="11.98" ry="30.16" transform="translate(263.731 565.216) rotate(-155.67)" opacity="0.1"/>
  <ellipse id="Ellipse_13" data-name="Ellipse 13" cx="11.98" cy="30.16" rx="11.98" ry="30.16" transform="translate(262.732 564.213) rotate(-155.67)" fill="#dce0ed"/>
  <path id="Path_42" data-name="Path 42" d="M791.59,513v15.67h30.5a52.54,52.54,0,0,0,8.48-.68c2.9-7.37,4.85-11.67,4.85-11.67l-26.85-2Z" transform="translate(-498.87 -45.556)" opacity="0.1"/>
  <path id="Path_43" data-name="Path 43" d="M756.42,526.63h30.5c26.79,0,48.5-20,48.5-44.77v-4.15c0-24.72-21.71-44.76-48.5-44.76l-30.5,2.77Z" transform="translate(-463.7 -45.556)" fill="#022b69"/>
  <path id="Path_44" data-name="Path 44" d="M763.427,459.45s-18.25,9.75-7.75,26.25c0,0,12.88,21.12,33.13,19.12l7.37-45.37S771.927,457.2,763.427,459.45Z" transform="translate(-420.456 -45.556)" fill="#022b69"/>
  <path id="Path_45" data-name="Path 45" d="M770.476,458.57a19.4,19.4,0,0,0-14.84,7.82c-3.25,4.5-5.19,11.06.06,19.31,0,0,12.88,21.12,33.13,19.12l7.37-45.37S781.026,458,770.476,458.57Z" transform="translate(-420.495 -45.556)" opacity="0.1"/>
  <path id="Path_46" data-name="Path 46" d="M787.06,390.17h-5.88a18.62,18.62,0,0,0-18.62,18.62v53.68a18.62,18.62,0,0,0,18.62,18.62h5.88Z" transform="translate(-493.34 -0.006)" opacity="0.1"/>
  <path id="Path_47" data-name="Path 47" d="M788.06,390.17h-5.88a18.62,18.62,0,0,0-18.62,18.62v53.68a18.62,18.62,0,0,0,18.62,18.62h5.88Z" transform="translate(-495.34 -0.006)" fill="#dce0ed"/>
  <path id="Path_48" data-name="Path 48" d="M811.691,552.48s-4.71,1.72-11,4.12c-10,3.85-24.1,9.47-29,12.55s-23.17,8.14-36.85,11.7a120,120,0,0,1-31.06,3.83c-10.64-.1-23.53-.2-27.09-.2a11.2,11.2,0,0,0-1.86.14c-3.74.62-3.59,3.13-3.5,3.73v.13c22,13.33,48.67,73,50.33,83,1.25,7.5,12.24,28.29,17.66,38.23,1.82,3.33,3,5.44,3,5.44l-6.67,7.66-19.33,8.67-18.33,8s-19.34,1-19.67,0-.33-11.33-.33-11.33a54.6,54.6,0,0,0,6.68-5.08,110.512,110.512,0,0,0,12.32-12.59c10.66-12.67-10.67-37-10.67-37l-41-53.33s-3.33-6-19.33-30,0-37,0-37l28.16-11.69c48.84-18.28,107.75-32.93,107.75-32.93l.84-.11,12.49-1.56Z" transform="translate(-302.431 -45.556)" fill="#efb7b9"/>
  <path id="Path_49" data-name="Path 49" d="M718.353,731.48s-3.5,4.13-.88,4.5,9.5-1.12,9.5-1.12l43.63-23s4.75-3.38,5.87,3.25,1.88,6,1.88,6,5.75,12.37,0,14.93-40.29,12.69-40.29,12.69-50.13,11.38-54.88-1.75,8.5-10.87,8.5-10.87,16.5-4,22.13-12C713.853,724.11,721.973,726.36,718.353,731.48Z" transform="translate(-334.922 -45.556)" fill="#444053"/>
  <path id="Path_50" data-name="Path 50" d="M626.021,553.15l28.16-11.69c48.84-18.28,107.75-32.93,107.75-32.93l.84-.11,12.49-1.56,36.42,45.62s-4.71,1.72-11,4.12c-10,3.85-24.1,9.47-29,12.55s-23.17,8.14-36.85,11.7a120,120,0,0,1-31.06,3.83c-10.64-.1-23.53-.2-27.09-.2a11.2,11.2,0,0,0-1.86.14c-3.74.62-3.59,3.13-3.5,3.73v.13c22,13.33,48.67,73,50.33,83,1.25,7.5,12.24,28.29,17.66,38.23l.73,1.34c1.45-.24,3.26.28,3.9,4.06,1.13,6.62,1.88,6,1.88,6s5.75,12.37,0,14.93-40.26,12.69-40.26,12.69-50.13,11.38-54.88-1.75,8.5-10.87,8.5-10.87,16.5-4,22.13-12a11.051,11.051,0,0,1,1.46.54c.59-.48,1.22-1,1.89-1.58a110.5,110.5,0,0,0,12.32-12.59c10.66-12.67-10.67-37-10.67-37l-41-53.33s-3.33-6-19.33-30S626.021,553.15,626.021,553.15Z" transform="translate(-302.421 -45.556)" opacity="0.05"/>
  <path id="Path_51" data-name="Path 51" d="M642.64,329.46l-1.52,1.92-.85,1.07-5.3,6.67s-12.65,4.06-23.74,6.69c-11.55,2.73-21.4,3.92-13.57-2.61,4.86-4.05,5.18-10.83,3.41-18.1a74.9,74.9,0,0,0-6.36-16.1q-.59-1.14-1.17-2.22a133.422,133.422,0,0,0-8.24-13.31,236.625,236.625,0,0,1,22.09-13.57c9.16-4.74,16.68-6.81,11.91,2.57-3.06,6-2.06,12.74.8,19.19.22.51.46,1,.71,1.53a68.78,68.78,0,0,0,9.44,13.89A109.618,109.618,0,0,0,642.64,329.46Z" transform="translate(-99.8 -45.556)" fill="#efb7b9"/>
  <path id="Path_52" data-name="Path 52" d="M580.44,436.24l-6.78,6.19-6.55,25.2h10.93l12.07-15.7Z" transform="translate(-100.94 -0.006)" fill="#444053"/>
  <path id="Path_53" data-name="Path 53" d="M590.11,451.93l-7.3,9.49-4.77,6.21H567.11l1.12-4.31L573,444.96l.66-2.53,6.78-6.19,9.26,15.02Z" transform="translate(-100.94 -0.006)" opacity="0.1"/>
  <path id="Path_54" data-name="Path 54" d="M590.11,451.93l-7.3,9.49-4.77,6.21H567.11l1.12-4.31L573,444.96l.66-2.53,6.78-6.19,9.26,15.02Z" transform="translate(-100.94 -0.006)" opacity="0.1"/>
  <path id="Path_55" data-name="Path 55" d="M795.441,563.79s-4.71,1.72-11,4.12c-10,3.85-24.1,9.47-29,12.55s-23.17,8.14-36.85,11.7a120,120,0,0,1-31.06,3.84c-10.64-.1-23.53-.2-27.09-.2a11.211,11.211,0,0,0-1.86.14c-3.74.62-3.59,3.13-3.5,3.73v.13c22,13.33,48.67,73,50.33,83,1.25,7.5,12.24,28.29,17.66,38.23,1.82,3.33,3,5.44,3,5.44l-6.67,7.66-19.32,8.66-18.33,8s-19.34,1-19.67,0-.33-11.33-.33-11.33a54.6,54.6,0,0,0,6.68-5.08,110.5,110.5,0,0,0,12.32-12.59c10.66-12.67-10.67-37-10.67-37l-41-53.33s-3.33-6-19.33-30,0-37,0-37l25.66-14.67c40-24.33,96.34-38.33,96.34-38.33l.84-.11,12.49-1.56Z" transform="translate(-269.941 -45.556)" fill="#efb7b9"/>
  <path id="Path_56" data-name="Path 56" d="M736.33,726.46l-6.67,7.66-19.33,8.67-18.33,8s-19.34,1-19.67,0-.33-11.33-.33-11.33a54.6,54.6,0,0,0,6.68-5.08c2.07,1.11,4.42,3.19,2.15,6.41,0,0-3.5,4.12-.88,4.5s9.5-1.12,9.5-1.12l43.63-23,.25-.17C735.17,724.35,736.33,726.46,736.33,726.46Z" transform="translate(-280.19 -45.556)" opacity="0.1"/>
  <path id="Path_57" data-name="Path 57" d="M702.063,742.79s-3.5,4.12-.87,4.5,9.5-1.13,9.5-1.13l43.62-23s4.75-3.37,5.88,3.25,1.87,6,1.87,6,5.75,12.38,0,14.94S721.813,760,721.813,760s-50.12,11.37-54.87-1.75,8.5-10.88,8.5-10.88,16.5-4,22.12-12C697.532,735.41,705.692,737.66,702.063,742.79Z" transform="translate(-302.392 -45.556)" fill="#444053"/>
  <path id="Path_58" data-name="Path 58" d="M642.64,299.12c-5.78,4-14.6,10.33-22.13,10.33a36.912,36.912,0,0,1-5.8-.46,135.163,135.163,0,0,0-9.41-15.53s44-30.67,34-11C636,289,639.25,292.21,642.64,299.12Z" transform="translate(-119.8 -45.556)" opacity="0.1"/>
  <path id="Path_59" data-name="Path 59" d="M663.43,271.45a35.94,35.94,0,0,1-16.41,30.2,33.064,33.064,0,0,1-3.52,2,36,36,0,1,1,19.93-32.22Z" transform="translate(-126.72 -45.556)" fill="#efb7b9"/>
  <path id="Path_60" data-name="Path 60" d="M668.81,563.79s-4.71,1.72-11,4.12c-3.95-3.48-8-6.84-9.69-7.45-3.67-1.34-15.67-8.34-15.34-10.34s-5-9.66-9.66-11-2-8.33-2-8.33-9-3.33-11.24-8-9.1-10.67-6.76-10.33a7.26,7.26,0,0,0,2.84-1.11l12.49-1.56Z" transform="translate(-143.31 -45.556)" opacity="0.1"/>
  <path id="Path_61" data-name="Path 61" d="M653.972,551.79s-15.34,12.67-16.05,18.33-10.95,5.34-10.95,5.34-15.34-14.67-19-16-15.67-8.34-15.34-10.34-5-9.66-9.66-11-2-8.33-2-8.33-9-3.33-11.24-8-9.1-10.67-6.76-10.33c.66.09,2.77-1,5.45-2.59,3.29-2,7.46-4.71,10.86-7,3.6-2.44,6.35-4.38,6.35-4.38s1.57-.28,4.26-.67c14.51-2.1,61.77-7.46,72.74,10a26.47,26.47,0,0,1,3.25,7.47C670.792,532.89,653.972,551.79,653.972,551.79Z" transform="translate(-101.132 -45.556)" fill="#444053"/>
  <path id="Path_62" data-name="Path 62" d="M569.022,511.37s15.66,8.84,21.5,8.84S569.022,511.37,569.022,511.37Z" transform="translate(-32.222 -45.556)" opacity="0.1"/>
  <path id="Path_63" data-name="Path 63" d="M578.434,518.12s23.32,7.84,23.32,14S603.934,515.62,578.434,518.12Z" transform="translate(-52.093 -45.556)" opacity="0.1"/>
  <path id="Path_64" data-name="Path 64" d="M657.3,482.81l.33.45A1,1,0,0,1,657.3,482.81Z" transform="translate(-186.79 -45.556)" opacity="0.1"/>
  <path id="Path_65" data-name="Path 65" d="M633.087,329.46l-1.52,1.92-.85,1.07-5.3,6.67s-12.65,4.06-23.74,6.69c-11.55,2.73-21.4,3.92-13.57-2.61,4.86-4.05,5.18-10.83,3.41-18.1l.35-.45s-.35,6.74,3.64,6.87c5.38.17,5.45-1.64,10.41-3.73,6.39-2.7,12.94-7.21,14.78-10.72a109.623,109.623,0,0,0,12.39,12.39Z" transform="translate(-90.247 -45.556)" opacity="0.1"/>
  <path id="Path_66" data-name="Path 66" d="M656.11,514.26a11.55,11.55,0,0,1-8.58.2c-10.33-3.34-26.67-11.38-34.33-7.86-6.14,2.82-30.87,2.74-40,.37-2.27-.59-3.57-1.32-3.37-2.18a6,6,0,0,0-.35-2.93c-1.06-3.39-3.94-8.1-6.09-11.35l.66-2.53,6.78-6.19,9.26,15c14.51-2.1,61.77-7.46,72.74,10A26.471,26.471,0,0,1,656.11,514.26Z" transform="translate(-91.36 -45.556)" opacity="0.1"/>
  <path id="Path_67" data-name="Path 67" d="M658.258,506.46s-4,9.33-14.33,6-26.67-11.38-34.33-7.86-44.34,2.52-43.34-1.81-9-18-9-18,5.46-1,8.84-18.83c.5-2.6.95-5.56,1.33-8.92a113.517,113.517,0,0,0,.58-20.74c-1.35-19.3-8.11-27.18-8.11-27.18s-9.33-10.66-1.33-25.33c4.19-7.69,21.1-29,21.33-38.5.21-8.62,8.45-18.64,8.45-18.64s-.35,6.74,3.64,6.87c5.38.17,5.45-1.64,10.41-3.73,7.29-3.08,14.78-8.51,15.27-12.14,0,0,30.56-1.53,37.23,29.47s4.33,48,3.33,51.67-9.66,51-2.66,71S658.258,506.46,658.258,506.46Z" transform="translate(-86.758 -45.556)" fill="#a36468"/>
  <path id="Path_68" data-name="Path 68" d="M626.333,452a78.42,78.42,0,0,1-21.66,23.67,150.083,150.083,0,0,0-17.5,1.17c.5-2.6,1-5.56,1.33-8.92a113.517,113.517,0,0,0,.58-20.74,7.55,7.55,0,0,0,3.92-4.84c1.67-5.67,16.54-32.67,16.54-32.67s34.79-9,36,0S635,437,626.333,452Z" transform="translate(-104.663 -45.556)" opacity="0.1"/>
  <path id="Path_69" data-name="Path 69" d="M735.4,392.84s-21,39.73-22.63,45.4a7.66,7.66,0,0,1-7.08,5.66s-20.92,5-25.92,5.67-48.37,4.33-48.37,4.33-11,.34-12.33-3.66c-1.22-3.66-22.47-22.89-34.77-6.11a12.23,12.23,0,0,0-1.78,10.92c2.26,7.2,6.9,18.63,11.88,11.52,7-10,15.14-7.19,15.14-1.86s11.2,3.35,14.86,4.1c2,.41,8.88,2.24,14.83,3.84a108,108,0,0,0,21.17,3.51c11.81.77,29.22,1.41,35.39-.92,7.44-2.83,20.43-3.48,26-3.63a8.55,8.55,0,0,0,5.07-1.82A79.089,79.089,0,0,0,746.1,447.9c8.67-15,26.5-46.06,25.3-55.06S735.4,392.84,735.4,392.84Z" transform="translate(-225.257 -45.556)" fill="#efb7b9"/>
  <path id="Path_70" data-name="Path 70" d="M607.023,337.79s-11.25,18.67-16.46,32-11.54,36.67-11.54,36.67l31.34-3.67,2.66-4.33s22.38,14,19.71,20,6-9,5.33-26,2.41-47.34,0-54.67S614.393,332.12,607.023,337.79Z" transform="translate(-89.883 -45.556)" opacity="0.1"/>
  <path id="Path_71" data-name="Path 71" d="M638.03,390.46c.67,17-8,32-5.33,26s-19.71-20-19.71-20l-2.63,4.33-31.33,3.67s6.33-23.34,11.54-36.67a203.943,203.943,0,0,1,10.72-22c3.21-5.83,5.74-10,5.74-10,4.31-3.33,13.46-5.28,20.76-4.82a26.88,26.88,0,0,1,3.39.41c3,.59,5.42,1.73,6.49,3.53a4.663,4.663,0,0,1,.4.88C640.47,343.12,637.39,373.46,638.03,390.46Z" transform="translate(-89.89 -45.556)" fill="#a36468"/>
  <path id="Path_72" data-name="Path 72" d="M583.25,437S570,455.25,566,455.75C566.03,455.79,583.03,452,583.25,437Z" transform="translate(-21.11 -45.556)" opacity="0.1"/>
  <path id="Path_73" data-name="Path 73" d="M600.035,463s-25,25.25-33,25.5S600.035,463,600.035,463Z" transform="translate(-37.895 -45.556)" opacity="0.1"/>
  <path id="Path_74" data-name="Path 74" d="M583.036,473.54s-16,18.75-17,18.75S583.316,485.79,583.036,473.54Z" transform="translate(-20.896 -45.556)" opacity="0.1"/>
  <path id="Path_75" data-name="Path 75" d="M657.47,334.91a22.18,22.18,0,0,1-7.34-2.46c-.86-.45-1.71-.95-2.54-1.48a60.071,60.071,0,0,1-9.12-7.5c-4.6-4.47-9.19-9.35-11.09-15.48a27.874,27.874,0,0,1-.94-4.32c-1.14-7.69-.18-16.18-5.68-21.41a13.078,13.078,0,0,0-3.51-2.37c-7.8-3.71-19.11-1.31-24.93-8-3.7-4.24-3.61-10.13-6.45-14.74-1.24-2-3.52-3.73-5.54-5.57a36,36,0,1,1,49.63,50c.22.51.46,1,.71,1.53,6.87,14,21.83,26.28,21.83,26.28l-1.52,1.92C654.01,332,656.4,333.11,657.47,334.91Z" transform="translate(-109.66 -45.556)" opacity="0.1"/>
  <path id="Path_76" data-name="Path 76" d="M413.1,270.91c6.77,7.76,21,3.24,28.45,10.35,6.54,6.23,3.94,17.1,6.61,25.73,1.9,6.13,6.49,11,11.09,15.48,6.7,6.52,15.27,13.14,24.43,11.27,5.43-1.11,10.75-5.17,16-3.3,2.61.94,4.48,3.2,6.43,5.19a44.31,44.31,0,0,0,24.57,12.71,10.51,10.51,0,0,0,5.57-.26c2.8-1.14,4.31-4.2,6.86-5.83,5-3.2,11.42.08,16.61,2.94a116.23,116.23,0,0,0,95.48,6.87l-8.09-4c1.72-3.51,6.37-4.28,9.33-6.85,6.1-5.29,2.51-15.87-3.94-20.72s-14.8-6.54-21.48-11.07c-1.36-.92-2.74-2.14-2.87-3.77a6,6,0,0,1,1.09-3.34c3.56-6.27,7.5-13,6.7-20.17-1.22-11-13.23-17.76-24.26-18.53s-21.95,2.55-33,2.74c-4,.07-8.19-.32-11.62-2.39-4.79-2.88-7.2-8.37-10.11-13.14a53.67,53.67,0,0,0-21.5-19.82c-10-5.05-21.32-6.82-31.72-11-10.62-4.26-20.28-11-31.39-13.71-16.13-4-33.41,1.23-47.34,10.27-6.71,4.35-28.14,18.31-28,27.24.11,5.3,7,8.17,9.61,12.33C409.492,260.78,409.4,266.67,413.1,270.91Z" transform="translate(71.559 -45.556)" fill="#965d7b"/>
  <g id="Group_1" data-name="Group 1" transform="translate(468.58 194.274)" opacity="0.1">
    <path id="Path_77" data-name="Path 77" d="M421.7,297.3a6.09,6.09,0,0,0-1.09,3.34,3.38,3.38,0,0,0,.35,1.21c2.94-5.18,6-10.67,6.49-16.45C426.15,289.53,423.86,293.5,421.7,297.3Z" transform="translate(-188.5 -239.83)"/>
    <path id="Path_78" data-name="Path 78" d="M406.34,336.2c-2.95,2.57-7.6,3.34-9.33,6.85l2.86,1.42a32.169,32.169,0,0,0,5.47-3.27,9.41,9.41,0,0,0,3.12-7.77,8.589,8.589,0,0,1-2.12,2.77Z" transform="translate(-145.94 -239.83)"/>
    <path id="Path_79" data-name="Path 79" d="M565.08,340.19c-5.19-2.86-11.62-6.14-16.61-2.94-2.54,1.63-4.06,4.69-6.86,5.83a10.47,10.47,0,0,1-5.56.26,44.34,44.34,0,0,1-24.58-12.71c-1.94-2-3.81-4.25-6.43-5.19-5.22-1.87-10.54,2.19-16,3.3-9.16,1.87-17.72-4.75-24.43-11.27-4.6-4.47-9.18-9.35-11.08-15.48-2.68-8.63-.08-19.5-6.62-25.73-7.47-7.11-21.67-2.59-28.45-10.35-3.69-4.24-3.61-10.13-6.45-14.74-2.4-3.89-8.62-6.65-9.5-11.34a8.7,8.7,0,0,0-1.11,4c.11,5.3,7,8.17,9.61,12.33,2.84,4.61,2.76,10.5,6.45,14.74,6.78,7.76,21,3.24,28.45,10.35,6.54,6.23,3.94,17.1,6.62,25.73,1.9,6.13,6.48,11,11.08,15.48,6.71,6.52,15.27,13.14,24.43,11.27,5.44-1.11,10.76-5.17,16-3.3,2.62.94,4.49,3.2,6.43,5.19a44.34,44.34,0,0,0,24.58,12.71,10.47,10.47,0,0,0,5.56-.26c2.8-1.14,4.32-4.2,6.86-5.83,5-3.2,11.42.08,16.61,2.94a116.23,116.23,0,0,0,95.48,6.87l-5.59-2.77A116.45,116.45,0,0,1,565.08,340.19Z" transform="translate(-401.4 -239.83)"/>
  </g>
  <path id="Path_80" data-name="Path 80" d="M747.91,599.66l-8.41-4.07V594c0-.61,6.71.74,11.91,1.89C747.67,596.55,747.82,599.06,747.91,599.66Z" transform="translate(-362.77 -45.556)" opacity="0.1"/>
  <ellipse id="Ellipse_14" data-name="Ellipse 14" cx="20.26" cy="24.65" rx="20.26" ry="24.65" transform="translate(357.57 412.844)" fill="#022b69"/>
  <path id="Path_81" data-name="Path 81" d="M343.81,405.42l32.57,32.12,107.07-1.87-29.44-30.25Z" transform="translate(229.02 -0.006)" fill="#dda2a6"/>
  <path id="Path_82" data-name="Path 82" d="M450.88,515.3V405.42l32.57,32.12V545.06Z" transform="translate(121.95 -0.006)" fill="#b77b7f"/>
  <path id="Path_83" data-name="Path 83" d="M450.88,435.67V545.06H343.81V437.54Z" transform="translate(261.59 -0.006)" fill="#dda2a6"/>
  <path id="Path_84" data-name="Path 84" d="M450.88,435.67V545.06H343.81V437.54Z" transform="translate(261.59 -0.006)" fill="#fff" opacity="0.3"/>
  <path id="Path_85" data-name="Path 85" d="M352.17,467.65l79.63-13.67,10.38,52.28L360.2,521.32Z" transform="translate(261.93 -0.006)" fill="#dce0ed"/>
  <path id="Path_86" data-name="Path 86" d="M371.58,479.86l53.53-8.41,1.34,6.98-53.53,9.08Z" transform="translate(258.25 -0.006)" fill="#022b69"/>
  <path id="Path_87" data-name="Path 87" d="M379.94,494.79l30.45-4.42,1.34,7.75-31.79,4.46Z" transform="translate(264.61 -0.006)" fill="#022b69"/>
  <path id="Path_88" data-name="Path 88" d="M460.46,463.09l1.45-43.26,8.37,8.26-1.46,43.36Z" transform="translate(125.54 -0.006)" fill="#65617d"/>
  <path id="Path_89" data-name="Path 89" d="M462.01,416.49l-102.89,1.39-3.46,1.95,8.37,8.26,2.89-1.7,101.91-2.89Z" transform="translate(231.79 -0.006)" fill="#65617d"/>
</svg>
