<svg xmlns="http://www.w3.org/2000/svg" width="63" height="64" viewBox="0 0 63 64"><defs><style>.a{fill:#fff;}</style></defs><g transform="translate(10.46 10.501)"><g transform="translate(-10.46 -10.501)"><g transform="translate(0)"><path class="a" d="M32.379,8.368H10.9a2.863,2.863,0,1,0,0,5.726H32.379a2.863,2.863,0,1,0,0-5.726Z" transform="translate(2.722 3.044)"/><path class="a" d="M35.242,19.242a2.862,2.862,0,0,0-2.864-2.863H10.9a2.864,2.864,0,1,0,0,5.727H32.379A2.863,2.863,0,0,0,35.242,19.242Z" transform="translate(2.722 5.959)"/><path class="a" d="M21.642,30.117a2.864,2.864,0,0,0,0-5.727H10.9a2.864,2.864,0,1,0,0,5.727Z" transform="translate(2.717 8.873)"/><path class="a" d="M46.057,48.925l-3.009,2.014V58.18H5.765V5.818H43.049v11.5L48.785,7.236V2.909A2.889,2.889,0,0,0,45.916,0H2.9A2.889,2.889,0,0,0,.028,2.909V61.091A2.888,2.888,0,0,0,2.9,64H45.916a2.89,2.89,0,0,0,2.87-2.909V45.058l-1.371,2.4A4.361,4.361,0,0,1,46.057,48.925Z" transform="translate(-0.028)"/><path class="a" d="M54.585,11.473c-.059-.257-.663-2.571-4.307-4.675s-5.949-1.47-6.2-1.391a1.434,1.434,0,0,0-.81.65l-17.9,31a1.448,1.448,0,0,0-.19.633l-.67,11.185a1.431,1.431,0,0,0,2.217,1.281l9.352-6.174a1.412,1.412,0,0,0,.452-.477l17.9-31A1.437,1.437,0,0,0,54.585,11.473ZM30.334,45.2a12.6,12.6,0,0,0-1.6-1.084A12.793,12.793,0,0,0,27,43.272l.2-3.354a8.975,8.975,0,0,1,3.26,1.21,9.007,9.007,0,0,1,2.679,2.217Z" transform="translate(8.381 1.789)"/><path class="a" d="M17.676,40.672c.094.575.757.753,1.2.938s.941-.162,1.3-.335c2.185-1.063,5.144.186,7.485.186a1.074,1.074,0,0,0,0-2.147c-2.729,0-5-.69-7.7-.244a1.349,1.349,0,0,0-.227-.657,1.693,1.693,0,0,0-1.793-1.005,2.53,2.53,0,0,0-.145-.307,1,1,0,0,0-.67-.472c.755-1.319,1.241-2.714.747-3.843a1.068,1.068,0,0,0-.928-.532c-1.434-.054-2.665,1.452-3.587,2.355a69.981,69.981,0,0,0-6.305,7.383C6.2,43.09,8.069,44.157,8.9,43.078a76.534,76.534,0,0,1,5.575-6.514c-.479.785-.987,1.556-1.521,2.3-.764,1.181,1.06,2.186,1.854,1.084a2.413,2.413,0,0,1,.692-.674c-.052.133-.106.263-.16.4l.008,0c-.042.086-.083.172-.117.253-.48,1.2,1.312,1.753,1.964.826a6.76,6.76,0,0,0,.456-.744A3.216,3.216,0,0,0,17.676,40.672Z" transform="translate(2.288 11.979)"/></g></g></g></svg>