<svg xmlns="http://www.w3.org/2000/svg" width="68.757" height="66.996" viewBox="0 0 68.757 66.996"><defs><style>.a{fill:#fff;}</style></defs><g transform="translate(0 -5.8)"><g transform="translate(0 5.8)"><path class="a" d="M63.768,21.646H42.512L50.06,9.262a2.277,2.277,0,1,0-3.888-2.37L37.18,21.646h-5.6L22.585,6.892A2.277,2.277,0,1,0,18.7,9.262l7.548,12.384H4.988A4.994,4.994,0,0,0,0,26.634V67.808A4.994,4.994,0,0,0,4.988,72.8h58.78a4.994,4.994,0,0,0,4.988-4.988V26.634A4.994,4.994,0,0,0,63.768,21.646ZM48.217,61.824a2.712,2.712,0,0,1-2.712,2.712H10.8a2.712,2.712,0,0,1-2.711-2.712V32.618a2.712,2.712,0,0,1,2.712-2.712h34.7a2.712,2.712,0,0,1,2.712,2.712Zm10.035-.867a4.705,4.705,0,1,1,4.705-4.705A4.711,4.711,0,0,1,58.252,60.957Zm0-18.062a4.705,4.705,0,1,1,4.705-4.705A4.711,4.711,0,0,1,58.252,42.9Z" transform="translate(0 -5.8)"/></g></g></svg>